<svg width="16" height="14" viewBox="0 0 16 14" fill="none" xmlns="http://www.w3.org/2000/svg">
<path d="M8.10894 13C13.9894 9.5 17.0547 4.20921 13.7001 1.76734C11.4999 0.165765 9.04083 1.44175 8.10894 2.25572H8.08743H8.08737H8.06586C7.13397 1.44175 4.67486 0.165765 2.47467 1.76734C-0.8799 4.20921 2.18537 9.5 8.06586 13H8.08737H8.08743H8.10894Z" fill="#B672FF"/>
<path d="M8.08737 2.25572H8.10894C9.04083 1.44175 11.4999 0.165765 13.7001 1.76734C17.0547 4.20921 13.9894 9.5 8.10894 13H8.08737M8.08743 2.25572H8.06586C7.13397 1.44175 4.67486 0.165765 2.47467 1.76734C-0.8799 4.20921 2.18537 9.5 8.06586 13H8.08743" stroke="#B672FF"/>
</svg>
